<svg width="300" height="300" viewBox="0 0 300 300" xmlns="http://www.w3.org/2000/svg">
  <defs>
    <linearGradient id="fryerGradient" x1="0%" y1="0%" x2="100%" y2="100%">
      <stop offset="0%" style="stop-color:#2c2c2c;stop-opacity:1" />
      <stop offset="100%" style="stop-color:#1a1a1a;stop-opacity:1" />
    </linearGradient>
    <linearGradient id="basketGradient" x1="0%" y1="0%" x2="100%" y2="100%">
      <stop offset="0%" style="stop-color:#4a4a4a;stop-opacity:1" />
      <stop offset="100%" style="stop-color:#2a2a2a;stop-opacity:1" />
    </linearGradient>
  </defs>
  
  <!-- Background -->
  <rect width="300" height="300" fill="#f8f9fa"/>
  
  <!-- Main Body -->
  <rect x="80" y="100" width="140" height="140" rx="15" fill="url(#fryerGradient)" stroke="#333" stroke-width="2"/>
  
  <!-- Control Panel -->
  <rect x="90" y="80" width="120" height="30" rx="5" fill="#1a1a1a" stroke="#333" stroke-width="1"/>
  
  <!-- Display -->
  <rect x="100" y="85" width="60" height="20" rx="3" fill="#000" stroke="#333" stroke-width="1"/>
  <text x="130" y="97" text-anchor="middle" font-family="monospace" font-size="8" fill="#00ff00">350°F</text>
  
  <!-- Control Buttons -->
  <circle cx="175" cy="90" r="6" fill="#333" stroke="#666" stroke-width="1"/>
  <circle cx="190" cy="90" r="6" fill="#333" stroke="#666" stroke-width="1"/>
  <circle cx="175" cy="100" r="6" fill="#333" stroke="#666" stroke-width="1"/>
  <circle cx="190" cy="100" r="6" fill="#333" stroke="#666" stroke-width="1"/>
  
  <!-- Button Labels -->
  <g font-family="Arial, sans-serif" font-size="4" fill="#ccc" text-anchor="middle">
    <text x="175" y="92">+</text>
    <text x="190" y="92">-</text>
    <text x="175" y="102">T</text>
    <text x="190" y="102">S</text>
  </g>
  
  <!-- Air Vents -->
  <g fill="#666">
    <rect x="85" y="120" width="2" height="8" rx="1"/>
    <rect x="90" y="120" width="2" height="8" rx="1"/>
    <rect x="95" y="120" width="2" height="8" rx="1"/>
    <rect x="85" y="135" width="2" height="8" rx="1"/>
    <rect x="90" y="135" width="2" height="8" rx="1"/>
    <rect x="95" y="135" width="2" height="8" rx="1"/>
    <rect x="85" y="150" width="2" height="8" rx="1"/>
    <rect x="90" y="150" width="2" height="8" rx="1"/>
    <rect x="95" y="150" width="2" height="8" rx="1"/>
  </g>
  
  <!-- Basket (Pulled Out) -->
  <rect x="230" y="140" width="50" height="60" rx="5" fill="url(#basketGradient)" stroke="#333" stroke-width="2"/>
  
  <!-- Basket Handle -->
  <rect x="225" y="165" width="8" height="10" rx="2" fill="#333" stroke="#666" stroke-width="1"/>
  
  <!-- Basket Mesh Pattern -->
  <g stroke="#666" stroke-width="0.5" opacity="0.5">
    <line x1="235" y1="145" x2="275" y2="145"/>
    <line x1="235" y1="150" x2="275" y2="150"/>
    <line x1="235" y1="155" x2="275" y2="155"/>
    <line x1="235" y1="160" x2="275" y2="160"/>
    <line x1="235" y1="165" x2="275" y2="165"/>
    <line x1="235" y1="170" x2="275" y2="170"/>
    <line x1="235" y1="175" x2="275" y2="175"/>
    <line x1="235" y1="180" x2="275" y2="180"/>
    <line x1="235" y1="185" x2="275" y2="185"/>
    <line x1="235" y1="190" x2="275" y2="190"/>
    <line x1="235" y1="195" x2="275" y2="195"/>
    
    <line x1="240" y1="145" x2="240" y2="195"/>
    <line x1="245" y1="145" x2="245" y2="195"/>
    <line x1="250" y1="145" x2="250" y2="195"/>
    <line x1="255" y1="145" x2="255" y2="195"/>
    <line x1="260" y1="145" x2="260" y2="195"/>
    <line x1="265" y1="145" x2="265" y2="195"/>
    <line x1="270" y1="145" x2="270" y2="195"/>
  </g>
  
  <!-- Food in Basket -->
  <g fill="#d4af37" opacity="0.7">
    <circle cx="245" cy="160" r="3"/>
    <circle cx="255" cy="165" r="3"/>
    <circle cx="265" cy="155" r="3"/>
    <circle cx="250" cy="175" r="3"/>
    <circle cx="260" cy="180" r="3"/>
  </g>
  
  <!-- Power Indicator -->
  <circle cx="95" cy="90" r="2" fill="#ff0000" opacity="0.8"/>
  
  <!-- Brand Logo -->
  <text x="150" y="200" text-anchor="middle" font-family="Arial, sans-serif" font-size="8" fill="#999">AIR FRY</text>
  
  <!-- Base -->
  <rect x="85" y="240" width="130" height="10" rx="5" fill="#1a1a1a" stroke="#333" stroke-width="1"/>
  
  <!-- Power Cord -->
  <path d="M 220 250 Q 240 250 250 260 Q 260 270 270 270" stroke="#333" stroke-width="3" fill="none"/>
  
  <!-- Shadow -->
  <ellipse cx="150" cy="270" rx="70" ry="8" fill="#000" opacity="0.1"/>
</svg>