<svg width="300" height="300" viewBox="0 0 300 300" xmlns="http://www.w3.org/2000/svg">
  <defs>
    <linearGradient id="jeansGradient" x1="0%" y1="0%" x2="100%" y2="100%">
      <stop offset="0%" style="stop-color:#4169e1;stop-opacity:1" />
      <stop offset="100%" style="stop-color:#1e3a8a;stop-opacity:1" />
    </linearGradient>
  </defs>
  
  <!-- Background -->
  <rect width="300" height="300" fill="#f8f9fa"/>
  
  <!-- Waistband -->
  <rect x="100" y="80" width="100" height="15" rx="2" fill="url(#jeansGradient)" stroke="#1e3a8a" stroke-width="1"/>
  
  <!-- Left Leg -->
  <path d="M 100 95 L 105 260 L 125 260 L 130 95 Z" fill="url(#jeansGradient)" stroke="#1e3a8a" stroke-width="2"/>
  
  <!-- Right Leg -->
  <path d="M 170 95 L 175 260 L 195 260 L 200 95 Z" fill="url(#jeansGradient)" stroke="#1e3a8a" stroke-width="2"/>
  
  <!-- Crotch Area -->
  <path d="M 130 95 L 130 140 L 170 140 L 170 95" fill="url(#jeansGradient)" stroke="#1e3a8a" stroke-width="2"/>
  
  <!-- Front Pockets -->
  <path d="M 110 100 Q 120 105 120 115 L 120 130 Q 120 135 115 135 L 110 135" stroke="#1e3a8a" stroke-width="2" fill="none"/>
  <path d="M 190 100 Q 180 105 180 115 L 180 130 Q 180 135 185 135 L 190 135" stroke="#1e3a8a" stroke-width="2" fill="none"/>
  
  <!-- Back Pockets -->
  <rect x="108" y="120" width="15" height="20" rx="2" fill="none" stroke="#1e3a8a" stroke-width="1.5"/>
  <rect x="177" y="120" width="15" height="20" rx="2" fill="none" stroke="#1e3a8a" stroke-width="1.5"/>
  
  <!-- Seam Lines -->
  <line x1="115" y1="95" x2="115" y2="260" stroke="#1e3a8a" stroke-width="1" opacity="0.5"/>
  <line x1="185" y1="95" x2="185" y2="260" stroke="#1e3a8a" stroke-width="1" opacity="0.5"/>
  
  <!-- Inner Seam -->
  <line x1="130" y1="140" x2="125" y2="260" stroke="#1e3a8a" stroke-width="1" opacity="0.5"/>
  <line x1="170" y1="140" x2="175" y2="260" stroke="#1e3a8a" stroke-width="1" opacity="0.5"/>
  
  <!-- Belt Loops -->
  <rect x="105" y="78" width="3" height="8" fill="#1e3a8a"/>
  <rect x="125" y="78" width="3" height="8" fill="#1e3a8a"/>
  <rect x="147" y="78" width="3" height="8" fill="#1e3a8a"/>
  <rect x="172" y="78" width="3" height="8" fill="#1e3a8a"/>
  <rect x="192" y="78" width="3" height="8" fill="#1e3a8a"/>
  
  <!-- Button -->
  <circle cx="150" cy="87" r="3" fill="#c0c0c0" stroke="#999" stroke-width="1"/>
  
  <!-- Zipper -->
  <line x1="150" y1="95" x2="150" y2="115" stroke="#999" stroke-width="2"/>
  
  <!-- Hem -->
  <line x1="105" y1="260" x2="125" y2="260" stroke="#1e3a8a" stroke-width="2"/>
  <line x1="175" y1="260" x2="195" y2="260" stroke="#1e3a8a" stroke-width="2"/>
  
  <!-- Shadow -->
  <ellipse cx="150" cy="270" rx="50" ry="6" fill="#000" opacity="0.1"/>
</svg>