<svg width="300" height="300" viewBox="0 0 300 300" xmlns="http://www.w3.org/2000/svg">
  <defs>
    <linearGradient id="shoeGradient" x1="0%" y1="0%" x2="100%" y2="100%">
      <stop offset="0%" style="stop-color:#ffffff;stop-opacity:1" />
      <stop offset="100%" style="stop-color:#e0e0e0;stop-opacity:1" />
    </linearGradient>
    <linearGradient id="soleGradient" x1="0%" y1="0%" x2="100%" y2="100%">
      <stop offset="0%" style="stop-color:#2c2c2c;stop-opacity:1" />
      <stop offset="100%" style="stop-color:#1a1a1a;stop-opacity:1" />
    </linearGradient>
  </defs>
  
  <!-- Background -->
  <rect width="300" height="300" fill="#f8f9fa"/>
  
  <!-- Sole -->
  <ellipse cx="150" cy="220" rx="80" ry="25" fill="url(#soleGradient)" stroke="#000" stroke-width="1"/>
  
  <!-- Midsole -->
  <ellipse cx="150" cy="215" rx="75" ry="20" fill="#f0f0f0" stroke="#ccc" stroke-width="1"/>
  
  <!-- Shoe Upper -->
  <path d="M 80 215 Q 80 180 100 160 Q 120 140 150 140 Q 180 140 200 160 Q 220 180 220 215" fill="url(#shoeGradient)" stroke="#ccc" stroke-width="2"/>
  
  <!-- Toe Cap -->
  <path d="M 100 160 Q 120 145 150 145 Q 180 145 200 160 Q 190 150 150 150 Q 110 150 100 160" fill="#f8f8f8" stroke="#ddd" stroke-width="1"/>
  
  <!-- Side Panel -->
  <path d="M 90 200 Q 110 170 140 165 Q 160 165 180 170 Q 200 175 210 200" stroke="#ddd" stroke-width="2" fill="none"/>
  
  <!-- Laces -->
  <g stroke="#333" stroke-width="2" fill="none">
    <line x1="130" y1="170" x2="170" y2="170"/>
    <line x1="125" y1="180" x2="175" y2="180"/>
    <line x1="120" y1="190" x2="180" y2="190"/>
    <line x1="115" y1="200" x2="185" y2="200"/>
  </g>
  
  <!-- Eyelets -->
  <g fill="#999">
    <circle cx="125" cy="170" r="2"/>
    <circle cx="175" cy="170" r="2"/>
    <circle cx="120" cy="180" r="2"/>
    <circle cx="180" cy="180" r="2"/>
    <circle cx="115" cy="190" r="2"/>
    <circle cx="185" cy="190" r="2"/>
    <circle cx="110" cy="200" r="2"/>
    <circle cx="190" cy="200" r="2"/>
  </g>
  
  <!-- Tongue -->
  <path d="M 140 160 Q 150 150 160 160 L 160 190 Q 150 195 140 190 Z" fill="#f8f8f8" stroke="#ddd" stroke-width="1"/>
  
  <!-- Brand Logo -->
  <path d="M 170 185 Q 180 180 190 185 Q 185 190 180 188 Q 175 190 170 185" fill="#ff6b35" stroke="#e55a2b" stroke-width="1"/>
  
  <!-- Heel Tab -->
  <rect x="145" y="140" width="10" height="15" rx="2" fill="#ddd" stroke="#ccc" stroke-width="1"/>
  
  <!-- Sole Pattern -->
  <g fill="#333" opacity="0.3">
    <circle cx="130" cy="220" r="2"/>
    <circle cx="140" cy="225" r="2"/>
    <circle cx="150" cy="230" r="2"/>
    <circle cx="160" cy="225" r="2"/>
    <circle cx="170" cy="220" r="2"/>
    <circle cx="135" cy="210" r="2"/>
    <circle cx="150" cy="210" r="2"/>
    <circle cx="165" cy="210" r="2"/>
  </g>
  
  <!-- Shadow -->
  <ellipse cx="150" cy="250" rx="70" ry="8" fill="#000" opacity="0.1"/>
</svg>