<svg width="300" height="300" viewBox="0 0 300 300" xmlns="http://www.w3.org/2000/svg">
  <defs>
    <linearGradient id="tabletGradient" x1="0%" y1="0%" x2="100%" y2="100%">
      <stop offset="0%" style="stop-color:#f5f5f5;stop-opacity:1" />
      <stop offset="100%" style="stop-color:#e0e0e0;stop-opacity:1" />
    </linearGradient>
    <linearGradient id="screenGradient" x1="0%" y1="0%" x2="100%" y2="100%">
      <stop offset="0%" style="stop-color:#1a1a1a;stop-opacity:1" />
      <stop offset="100%" style="stop-color:#000000;stop-opacity:1" />
    </linearGradient>
  </defs>
  
  <!-- Background -->
  <rect width="300" height="300" fill="#f8f9fa"/>
  
  <!-- Tablet Body -->
  <rect x="60" y="40" width="180" height="220" rx="15" fill="url(#tabletGradient)" stroke="#999" stroke-width="2"/>
  
  <!-- Screen -->
  <rect x="75" y="65" width="150" height="170" rx="8" fill="url(#screenGradient)"/>
  
  <!-- Home Button -->
  <circle cx="150" cy="250" r="8" fill="#e0e0e0" stroke="#ccc" stroke-width="1"/>
  
  <!-- Camera -->
  <circle cx="150" cy="52" r="3" fill="#333"/>
  
  <!-- Screen Content -->
  <g opacity="0.3">
    <!-- Status Bar -->
    <rect x="80" y="70" width="140" height="10" fill="#666"/>
    
    <!-- App Grid -->
    <rect x="90" y="90" width="20" height="20" rx="3" fill="#4CAF50"/>
    <rect x="115" y="90" width="20" height="20" rx="3" fill="#2196F3"/>
    <rect x="140" y="90" width="20" height="20" rx="3" fill="#FF9800"/>
    <rect x="165" y="90" width="20" height="20" rx="3" fill="#E91E63"/>
    <rect x="190" y="90" width="20" height="20" rx="3" fill="#9C27B0"/>
    
    <rect x="90" y="115" width="20" height="20" rx="3" fill="#F44336"/>
    <rect x="115" y="115" width="20" height="20" rx="3" fill="#607D8B"/>
    <rect x="140" y="115" width="20" height="20" rx="3" fill="#795548"/>
    <rect x="165" y="115" width="20" height="20" rx="3" fill="#FF5722"/>
    <rect x="190" y="115" width="20" height="20" rx="3" fill="#009688"/>
    
    <rect x="90" y="140" width="20" height="20" rx="3" fill="#8BC34A"/>
    <rect x="115" y="140" width="20" height="20" rx="3" fill="#CDDC39"/>
    <rect x="140" y="140" width="20" height="20" rx="3" fill="#FFC107"/>
    <rect x="165" y="140" width="20" height="20" rx="3" fill="#03A9F4"/>
    <rect x="190" y="140" width="20" height="20" rx="3" fill="#673AB7"/>
    
    <!-- Content Area -->
    <rect x="85" y="170" width="130" height="50" rx="4" fill="#444"/>
  </g>
  
  <!-- Volume Buttons -->
  <rect x="55" y="100" width="3" height="20" rx="1" fill="#999"/>
  <rect x="55" y="125" width="3" height="20" rx="1" fill="#999"/>
  
  <!-- Power Button -->
  <rect x="242" y="110" width="3" height="25" rx="1" fill="#999"/>
  
  <!-- Speaker Grilles -->
  <g fill="#999">
    <circle cx="130" cy="250" r="1"/>
    <circle cx="135" cy="250" r="1"/>
    <circle cx="140" cy="250" r="1"/>
    <circle cx="145" cy="250" r="1"/>
    <circle cx="155" cy="250" r="1"/>
    <circle cx="160" cy="250" r="1"/>
    <circle cx="165" cy="250" r="1"/>
    <circle cx="170" cy="250" r="1"/>
  </g>
  
  <!-- Shadow -->
  <ellipse cx="150" cy="270" rx="70" ry="8" fill="#000" opacity="0.1"/>
</svg>